
<svg xmlns="http://www.w3.org/2000/svg" viewBox="0 0 2665.41 1933.96"><path fill="#fff" d="M2302.72,963.75L444.72,1648.75c-302,33-427-173-432.1-309.96-2.94-78.96,48.72-152.63,143.13-245.47,69.36-68.23,161.82-146.8,272.67-245.44,261.7-232.86,558.3-388.13,734.4-624.93C1338.92-13.84,1623.72-37.25,1799.03,85.05c175.31,122.3,305.69,13.7,530.69,175.7,20.21,14.55,36.57,32.16,49.6,52.16,132.17,202.66-76.6,650.84-76.6,650.84Z"/><path fill="#15296f" d="M2302.72,963.75L444.72,1648.75c-302,33-427-173-432.1-309.96-2.94-78.96,48.72-152.63,143.13-245.47-21.56,44.29-37.09,106.06-4.53,167.26,61,114.67,301.46,229.72,608,143.67,415.96-116.77,82.88-281.75-14.48-401.5-22.29-27.42.96-67.89,35.88-62.49,274.86,42.52,427.6,268.99,1078.6,78.99,614.42-179.32,514.93-707.55,514.93-707.55,0,0,1.84.43,5.17,1.21,132.17,202.66-76.6,650.84-76.6,650.84Z" opacity=".25"/><path fill="#15296f" d="M382,1664.76c-45.76,0-88.74-5.77-128.38-17.28-51.51-14.95-97.23-39.46-135.89-72.85-36.44-31.47-66.56-71.27-87.12-115.1-18.48-39.39-29.02-80.98-30.48-120.28-2.25-60.37,24.5-119.39,86.73-191.39,56.84-65.76,139.71-138.69,244.62-231.02,28.33-24.93,57.62-50.7,88.63-78.3,99.14-88.22,203.08-165.21,303.59-239.66,164.83-122.09,320.52-237.41,429.08-383.39,43.31-58.24,94.62-105.95,152.49-141.81,54.08-33.5,112.54-55.93,173.78-66.66,116.82-20.46,236.05,4.24,327.12,67.77,78.71,54.91,148.88,61.77,223.16,69.03,44.37,4.34,90.24,8.82,140.72,23.34,57.23,16.46,111.85,43.76,166.97,83.44,54.32,39.11,86.56,102.02,95.83,186.98,7.24,66.4.49,146.52-20.06,238.15-34.77,155.02-98.11,291.93-98.74,293.29-1.39,2.99-3.91,5.31-7.01,6.45L449.05,1660.48c-.96.35-1.95.59-2.97.7-21.89,2.39-43.28,3.59-64.08,3.59ZM1559.73,24.91c-135.19,0-280.46,62.4-386.88,205.5-110.77,148.95-267.91,265.34-434.27,388.56-100.07,74.12-203.55,150.77-301.86,238.24-31.06,27.64-60.38,53.44-88.73,78.39C143.98,1115.15,20.84,1223.53,25.11,1338.32c2.29,61.58,32.12,151.03,108.96,217.39,76.62,66.17,183.02,94.1,307.77,80.78l1851.65-682.66c11.21-25.01,64.41-147.38,94.98-283.93,19.9-88.87,26.46-166.17,19.5-229.77-8.49-77.52-37.27-134.46-85.56-169.23-117.8-84.82-208.14-93.65-295.51-102.18-77.63-7.59-150.95-14.75-235.03-73.41-65.04-45.38-146.59-70.39-232.15-70.39ZM2302.72,963.75h0,0Z"/><path fill="#15296f" d="M510.69,1711c-20.65,0-37.04-4.38-49.85-13.11-25.2-17.2-29.99-47.21-31.39-68.3-1.34-20.15,6.52-48.58,51.64-69.64,24.72-11.54,49.58-15.58,50.62-15.75,5.49-.87,10.89,1.98,13.27,7l59.56,126.04c1.54,3.26,1.6,7.03.16,10.34-1.44,3.31-4.24,5.83-7.68,6.92-34.74,11-63.2,16.49-86.33,16.49ZM526.58,1570.77c-8.62,2.03-22.17,5.83-35.33,12.03-25.64,12.07-38.04,27.26-36.85,45.12,1.68,25.23,8.21,40.9,20.54,49.31,18.09,12.34,51.97,11.52,100.81-2.42l-49.17-104.04Z"/><path fill="#15296f" d="M533.68,1556.55s-95.56,15.21-91.76,72.21,31.84,91.67,151.32,53.83l-59.56-126.04Z"/><path fill="#fff" d="M1550.48,1918.35c-727.23,37.6-791.22-276.25-791.22-276.25l61.73-15.25,15.44-3.81,1552.19-383.38s138.76,15.53,216.31,99.13c9.15,9.85,17.44,20.65,24.55,32.48h.01c9.23,15.35,16.48,32.44,21.03,51.45,37.8,157.97-372.8,458.03-1100.04,495.63Z"/><path fill="#15296f" d="M1433.92,1933.96c-118.8,0-224.91-10.27-316.58-30.71-97.36-21.71-178.88-54.89-242.27-98.63-109.78-75.75-127.35-156.61-128.05-160.01-1.34-6.57,2.74-13.02,9.25-14.63l1629.36-402.44c1.43-.36,2.92-.45,4.39-.29,2.36.26,58.57,6.78,120.31,33.22,36.6,15.68,67.51,35.15,91.86,57.87,30.94,28.87,51.29,63.02,60.5,101.48,9.05,37.82-4.5,82.33-39.19,128.71-31.28,41.82-77.91,83.55-138.59,124.02-64.32,42.9-141.25,82.14-228.65,116.66-200.51,79.18-444.33,128.15-705.12,141.64-40.32,2.08-79.41,3.12-117.22,3.12ZM775.13,1651.06c3.06,8.22,8.41,20.37,17.33,34.9,15.51,25.25,45.3,63.04,99.14,99.68,96.09,65.41,288.3,139.35,658.24,120.23,258.11-13.34,499.21-61.73,697.23-139.92,164.68-65.03,294.58-149.73,356.41-232.4,30.09-40.24,42.16-77.55,34.89-107.92-14.67-61.3-60.87-109.06-137.33-141.95-51.91-22.33-101.02-29.88-111.68-31.33l-1614.23,398.71ZM759.26,1642.1h0,0Z"/><path fill="#15296f" d="M636.51,1678.07c-5.03,0-9.68-3.05-11.6-7.86-2.2-5.5-.24-11.8,4.71-15.07,14.09-9.37,50.05-39.96,47.19-68.49-2.46-24.6-33.83-42.35-59.71-52.92-4.72-1.93-7.79-6.52-7.78-11.62.02-5.1,3.13-9.67,7.86-11.56,2.13-.85,216.82-86.48,530.03-197.63,289.09-102.59,723.67-248.54,1152.32-361.27,1.75-.46,3.58-.54,5.36-.22,1.74.31,17.41,3.33,32.71,14.53,14.49,10.61,30.99,30.44,28.49,64.94l41.32,136.32c1.6,4.62,13.69,42.68-8.08,78.87-1.66,2.76-4.32,4.77-7.43,5.62-3.02.82-306.16,83.29-671.95,176.57-337.72,86.12-799.45,199.32-1081.24,249.59-.74.13-1.47.2-2.2.2ZM653.05,1523.29c29.99,17,46.32,37.43,48.65,60.95,2.31,23.37-10.05,44.8-23.99,61.07,537.38-101.21,1618.58-393.55,1702.53-416.32,13.05-26.11,3.64-53.33,3.54-53.61-.08-.22-.14-.39-.21-.62l-42.09-138.88c-.47-1.57-.64-3.21-.48-4.84,1.88-19.26-4.01-34.2-17.52-44.41-7.96-6.02-16.52-8.88-20.58-9.98-426.81,112.38-859.25,257.63-1147.19,359.81-249.28,88.46-436.03,160.72-502.66,186.84Z"/><path fill="#15296f" d="M621.83,1522.16s851.89-340.42,1680.89-558.42c0,0,56.43,9.99,50.71,68.49l42.09,138.88s12.99,35.45-6.91,68.54c0,0-1207.31,328.73-1752.1,425.91,0,0,128.42-84.99-14.69-143.41Z"/><path fill="#ffc200" d="M642.72,1615.36c0,28.33-16.72,52.74-40.84,63.9l-8.62,3.32h-.02c-2.76.87-5.6,1.56-8.5,2.08-4.03.72-8.17,1.09-12.41,1.09-38.87,0-70.39-31.51-70.39-70.39,0-30.9,19.91-57.15,47.61-66.61l.21-.08c7.09-2.4,14.68-3.7,22.57-3.7,38.88,0,70.39,31.52,70.39,70.39Z"/><path fill="#ffc200" d="M661.38,1655.17c-7.34,4.2-15.65,7.27-24.86,10.4-11.81,4.01-23.01,9.22-34.64,13.69,24.12-11.16,40.84-35.57,40.84-63.9,0-38.87-31.51-70.39-70.39-70.39-7.89,0-15.48,1.3-22.57,3.7,27.25-9.22,56.39-31.58,86.58-25.46,26.54,5.38,49.15,28.74,55.54,54.68,4.45,18.09,1.34,37.68-7.58,53.94-6.07,11.07-13.75,18.08-22.92,23.33Z"/><path fill="#ffc200" d="M1324.15,601.82s26.83-42.74,100.08-42.74c0,0-5.72,77-90.67,92.97l-9.41-50.23Z"/><path fill="#ffc200" d="M1333.56,652.05s49.35-19.15,90.67-23.19c0,0,24.79,58.35-56.16,102.76,0,0-24.69-29.8-34.51-79.57Z"/><path fill="#ffc200" d="M1368.06,731.62s33.26-38.22,59.74-51.38c0,0,42.44,74.84-3.58,129.92,0,0-41.89-28.1-56.16-78.54Z"/><path fill="#ffc200" d="M1424.22,809.83s8.4-36.53,59.14-60.53c0,0,52.52,60.34,5.14,115.37l-64.28-54.85Z"/><path fill="#ffc200" d="M1493.16,858.82s11.65-55.28,55.41-76.55c0,0,30.86,47.2,7.26,107.82l-62.67-31.26Z"/><path fill="#ffc200" d="M1555.83,890.09s12.08-50.2,59.04-64.29c0,0,31.84,21.94,63.81,77.18,0,0-74.83,7.26-122.85-12.89Z"/><path fill="#15296f" d="M1937.72,968.25c-3.31,0-6.61-1.31-9.07-3.9-28.65-30.2-62.14-49.86-99.55-58.45-25.31-5.81-44-4.3-47.56-3.93-7.53,1.93-57.2,13.98-122.5,13.49-40.95-.31-79.54-5.54-114.71-15.53-44.32-12.6-83.29-32.83-115.83-60.15-96.49-81-136.56-222.26-119.09-419.85.61-6.88,6.68-11.96,13.55-11.35,6.88.61,11.96,6.68,11.35,13.55-16.7,188.99,20.4,323.06,110.27,398.51,67.76,56.88,154.13,69.37,214.65,69.83,66.19.5,116.25-12.74,116.75-12.87.49-.13.99-.23,1.5-.3.95-.13,23.74-3.21,55.96,3.97,29.41,6.56,72.95,23.31,113.35,65.89,4.75,5.01,4.54,12.92-.46,17.67-2.42,2.29-5.51,3.43-8.6,3.43Z"/><path fill="#ffc200" d="M1324.15,601.82s-86.93-58.98,0-210.04c0,0,76.48,88.43,0,210.04Z"/><path fill="#ffc200" d="M1324.15,601.82s-42.67-49.31-115.92-54.95c0,0,9.31,121.14,125.33,105.18l-9.41-50.23Z"/><path fill="#ffc200" d="M1333.56,652.05s-66.17-15.21-125.33,35.13c0,0,58.47,65.26,149.92,37.61l-24.58-72.74Z"/><path fill="#ffc200" d="M1358.14,724.79s-65.39-2.3-95.45,40.9c0,0,51.29,80.91,148.21,39.98,0,0-41.84-49.48-52.76-80.89Z"/><path fill="#ffc200" d="M1410.9,805.68s-47.8.78-77.34,69.15c0,0,98.08,43.32,144.15-16,0,0-50.08-32.89-66.81-53.15Z"/><path fill="#ffc200" d="M1477.7,858.82s-45.39,16.84-66.81,80.66c0,0,97.17,20.53,144.93-49.39l-78.13-31.26Z"/><path fill="#ffc200" d="M1555.83,890.09s-24.54,40.9-28.3,93.49c0,0,103.21-5.3,151.16-80.6,0,0-62.62,4.44-122.85-12.89Z"/><path fill="#15296f" d="M1324.15,614.32c-2.48,0-4.93-.74-7.02-2.16-1.03-.7-25.43-17.59-37.48-54.87-6.91-21.39-8.44-45.22-4.54-70.85,4.74-31.15,17.59-65.1,38.2-100.9,2.02-3.51,5.61-5.82,9.64-6.21,4.03-.39,8,1.2,10.65,4.27.86.99,21.16,24.79,31.33,64.49,9.33,36.42,11.67,93.8-30.21,160.38-1.81,2.87-4.7,4.88-8.02,5.58-.85.18-1.71.27-2.56.27ZM1325.29,415.9c-26.04,51.39-33.61,97.32-21.85,133.7,4.81,14.88,12.02,25.54,17.88,32.38,23.35-42.61,29.98-85.12,19.68-126.57-4.12-16.57-10.34-30.01-15.71-39.51Z"/><path fill="#15296f" d="M1313.16,666.01c-27.42,0-50.95-7.79-70.14-23.27-42.12-33.97-47.07-92.43-47.26-94.9-.28-3.64,1.04-7.22,3.62-9.8,2.58-2.58,6.16-3.9,9.8-3.62,77.49,5.96,122.54,57.06,124.42,59.23,1.45,1.67,2.43,3.7,2.83,5.88l9.41,50.23c.63,3.36-.15,6.83-2.15,9.61-2,2.77-5.05,4.61-8.44,5.08-7.62,1.05-14.99,1.57-22.1,1.57ZM1223.38,561.4c3.99,17.04,13.51,44.35,35.46,61.97,15.79,12.68,35.9,18.55,59.91,17.5l-6.21-33.14c-8.33-8.41-40.15-37.53-89.16-46.33Z"/><path fill="#15296f" d="M1313.49,744.07c-29.1,0-53.06-8.08-70.14-16.51-27.89-13.77-43.78-31.3-44.44-32.04-2.25-2.51-3.39-5.82-3.16-9.19.23-3.36,1.8-6.49,4.37-8.68,63.22-53.79,133.28-38.47,136.23-37.79,4.23.97,7.65,4.07,9.04,8.18l24.58,72.74c1.08,3.21.82,6.72-.73,9.73-1.55,3.01-4.25,5.26-7.49,6.24-17.27,5.22-33.43,7.32-48.26,7.32ZM1227.59,687.98c6.44,5.21,15.82,11.83,27.7,17.59,27.57,13.38,56.68,16.89,86.7,10.48l-17.85-52.83c-6.54-.75-17.45-1.42-30.73.05-24.1,2.67-46.18,10.97-65.81,24.71Z"/><path fill="#15296f" d="M1357.92,829.7c-26.97,0-48.51-8.63-63.94-17.98-27.13-16.44-41.25-38.41-41.84-39.33-2.69-4.25-2.58-9.7.3-13.83,33.56-48.24,103.19-46.36,106.15-46.26,5.16.18,9.67,3.51,11.37,8.39,10.03,28.84,50.1,76.45,50.5,76.92,2.57,3.04,3.54,7.11,2.61,10.98-.92,3.87-3.63,7.06-7.29,8.61-21.35,9.02-40.7,12.51-57.84,12.51ZM1278.53,765.91c5.55,6.6,15.4,16.72,29.22,24.92,24.91,14.79,52.57,17.81,82.41,9.03-12.01-15.42-30.62-40.9-40.35-62.36-15.49.94-50.14,5.63-71.27,28.41Z"/><path fill="#15296f" d="M1405.77,902.58c-6.06,0-12.34-.36-18.82-1.09-31.81-3.59-57.37-14.76-58.45-15.23-6.28-2.77-9.15-10.09-6.42-16.39,32.37-74.92,86.33-76.65,88.61-76.69.07,0,.14,0,.2,0,3.73,0,7.26,1.66,9.64,4.54,12.72,15.41,50.53,41.79,64.03,50.66,2.91,1.91,4.9,4.96,5.47,8.4.57,3.44-.32,6.96-2.46,9.72-18.48,23.79-46.52,36.09-81.8,36.09ZM1350.74,867.86c23.42,7.71,75.37,20.2,107.75-6.98-14.58-10.14-38.52-27.58-52.44-41.94-10.67,2.33-35.53,11.67-55.31,48.92Z"/><path fill="#15296f" d="M1443.35,954.79c-20.15,0-34.25-2.91-35.04-3.08-3.49-.74-6.5-2.93-8.27-6.03-1.77-3.1-2.13-6.8-1-10.18,23.06-68.69,72.23-87.63,74.31-88.4,2.91-1.08,6.11-1.04,8.99.11l78.13,31.26c3.52,1.41,6.21,4.34,7.32,7.97,1.1,3.63.5,7.56-1.64,10.69-21.63,31.66-55.94,51.12-99.22,56.28-8.41,1-16.38,1.38-23.58,1.38ZM1428.31,929.17c9.31.76,22.2,1.1,36.38-.66,29.83-3.69,53.6-14.8,70.86-33.07l-57.5-23.01c-9.55,4.96-33.54,20.42-49.73,56.74Z"/><path fill="#15296f" d="M1527.53,996.08c-3.35,0-6.57-1.35-8.93-3.75-2.51-2.56-3.8-6.07-3.54-9.64,3.92-54.94,28.99-97.25,30.05-99.03,2.92-4.86,8.73-7.15,14.17-5.58,57.27,16.48,117.91,12.48,118.52,12.43,4.72-.33,9.2,2.02,11.62,6.08,2.41,4.06,2.34,9.12-.19,13.11-21.15,33.22-55.77,58.69-100.1,73.67-33.05,11.16-59.83,12.65-60.96,12.7-.21.01-.43.02-.64.02ZM1562.21,904.75c-5.86,11.92-16.06,35.72-20.5,64.55,24.95-3.99,76-16.37,111.02-53.34-22.43-.34-56.17-2.58-90.53-11.21Z"/><path fill="#15296f" d="M1333.56,664.55c-2.5,0-4.96-.75-7.06-2.18-2.74-1.87-4.62-4.76-5.23-8.02l-9.41-50.23c-.58-3.09.03-6.28,1.7-8.95,1.25-1.98,31.41-48.59,110.67-48.59,3.48,0,6.79,1.45,9.16,3.99s3.56,5.96,3.31,9.43c-.07.9-1.79,22.32-15.07,45.74-12.3,21.69-37.16,49.46-85.75,58.59-.77.14-1.54.22-2.31.22ZM1337.45,604.94l5.98,31.92c44.22-12.95,59.96-45.6,65.46-64.58-42.93,4.01-64.31,24.26-71.44,32.66Z"/><path fill="#15296f" d="M1368.07,744.12c-3.63,0-7.19-1.58-9.63-4.53-1.09-1.32-26.83-32.84-37.15-85.12-1.17-5.95,2.09-11.88,7.74-14.07,2.08-.81,51.43-19.82,93.98-23.98,5.43-.53,10.59,2.53,12.72,7.55.79,1.85,7.56,18.78,3.04,42-4.09,21-18.63,51.33-64.7,76.6-1.89,1.04-3.96,1.54-6,1.54ZM1348.18,660.06c6.53,25.63,16.92,44.66,23.48,54.94,42.86-27.24,45.21-57.58,43.19-72.35-25.48,3.9-52.47,12.49-66.67,17.41Z"/><path fill="#15296f" d="M1424.22,822.66c-2.4,0-4.83-.69-6.96-2.12-1.87-1.25-45.88-31.28-61.22-85.52-1.15-4.06-.17-8.43,2.6-11.61,1.43-1.64,35.23-40.26,63.61-54.37,5.95-2.95,13.16-.75,16.44,5.03.48.84,11.69,20.83,16.88,48.14,7.08,37.29-.44,70.47-21.73,95.96-2.46,2.94-6.01,4.49-9.6,4.49ZM1382.14,734.7c9.64,27.65,28.29,47.4,39.62,57.47,10.82-17.95,13.97-39.62,9.36-64.62-2.17-11.79-5.73-22.1-8.74-29.45-15.81,11.07-32.38,28.13-40.23,36.6Z"/><path fill="#15296f" d="M1488.5,877.18c-2.87,0-5.75-.98-8.11-2.99l-64.29-54.85c-3.54-3.02-5.11-7.77-4.07-12.31.4-1.73,10.4-42.74,65.98-69.03,5.06-2.39,11.1-1.13,14.77,3.09.6.69,14.88,17.27,22.79,41.36,10.87,33.12,4.79,64.38-17.6,90.38-2.47,2.87-5.96,4.34-9.48,4.34ZM1438.97,805.98l47.44,40.47c20.08-32.95,3.12-66.4-6.72-81.18-25.4,14.33-36.35,31.43-40.72,40.71Z"/><path fill="#15296f" d="M1555.83,902.59c-1.92,0-3.83-.44-5.58-1.31l-62.67-31.26c-5.09-2.54-7.82-8.2-6.65-13.76.53-2.5,13.48-61.54,62.18-85.22,5.66-2.75,12.48-.87,15.93,4.4,1.4,2.15,34.09,53.34,8.44,119.2-1.28,3.27-3.87,5.86-7.15,7.13-1.45.56-2.98.84-4.5.84ZM1508.05,852.28l40.41,20.16c8.5-32.16.99-58.59-4.93-72.59-20.58,15.02-31.06,39.29-35.48,52.43Z"/><path fill="#15296f" d="M1646.74,916.78c-27.18,0-65.87-2.63-95.74-15.16-5.65-2.37-8.75-8.49-7.32-14.45.56-2.33,14.38-57.37,67.6-73.34,3.63-1.09,7.56-.47,10.68,1.68,1.39.96,34.53,24.19,67.54,81.21,2.13,3.68,2.24,8.19.3,11.98-1.94,3.78-5.68,6.32-9.91,6.73-1.29.13-14.52,1.36-33.15,1.36ZM1571.76,882.56c28.37,8.74,63.42,9.59,85.19,9.05-19.01-28.68-36.32-44.97-44.39-51.75-23.21,9.46-35.32,30.09-40.79,42.7Z"/><path fill="#ffc200" d="M2017.11,400.45s-45.52-21.77-107.42,17.4c0,0,46,62.01,126.33,30.08l-18.91-47.48Z"/><path fill="#ffc200" d="M2036.02,447.93s-51.94,10.2-89.02,28.89c0,0,10.25,62.57,102.4,56.8,0,0,4.93-38.38-13.39-85.69Z"/><path fill="#ffc200" d="M2049.4,533.62s-48.55-14.51-77.95-11.47c0,0,4.16,85.94,72.49,107.88,0,0,20.37-46.14,5.46-96.4Z"/><path fill="#ffc200" d="M2043.77,629.74s-26.63-26.38-82.34-19.53c0,0-12.12,79.07,57.34,100.25l25-80.72Z"/><path fill="#ffc200" d="M2011.71,708s-39.41-40.48-87.76-35.06c0,0-.84,56.39,51.52,94.99l36.24-59.93Z"/><path fill="#ffc200" d="M1975.47,767.93s-37.05-35.96-84.27-22.76c0,0-15.17,35.56-12.66,99.34,0,0,67.12-33.88,96.92-76.58Z"/><path fill="#15296f" d="M1697.43,1042.12c-1.17,0-2.35-.17-3.53-.51-6.62-1.95-10.42-8.89-8.47-15.52,35.91-122.25,93.48-149.37,95.91-150.47.46-.21.93-.39,1.41-.54.49-.15,50.49-16.01,106.16-51.95,50.7-32.73,116.75-89.41,143.48-173.53,35.52-111.78-4.84-244.87-119.95-395.57-4.19-5.49-3.14-13.33,2.35-17.52,5.49-4.19,13.33-3.14,17.52,2.35,120.41,157.64,162.08,298.43,123.86,418.47-12.89,40.48-35,78.41-65.72,112.76-24.38,27.25-54.2,52.31-88.63,74.47-54.63,35.15-102.81,51.54-110.61,54.07-2.49,1.34-13.84,8.04-28.2,25.21-15.12,18.08-36.7,51.73-53.61,109.3-1.6,5.45-6.58,8.98-11.99,8.98Z"/><path fill="#ffc200" d="M2017.11,400.45s41.92-96.33-112.31-177.49c0,0-17.34,115.62,112.31,177.49Z"/><path fill="#ffc200" d="M2017.11,400.45s9.69-64.49,68.58-108.42c0,0,56.91,107.34-49.67,155.9l-18.91-47.48Z"/><path fill="#ffc200" d="M2036.02,447.93s47.78-48.23,124.7-37.33c0,0-14.51,86.41-106.57,111.94l-18.12-74.61Z"/><path fill="#ffc200" d="M2054.14,522.54s54.03-36.91,102.53-16.47c0,0-.08,95.8-103.86,113.03,0,0,8.9-64.18,1.33-96.56Z"/><path fill="#ffc200" d="M2052.81,619.1s40.81-24.9,102.33,17.07c0,0-59.71,89.05-130.36,63.56,0,0,24.74-54.57,28.04-80.63Z"/><path fill="#ffc200" d="M2024.77,699.74s47.36-10.04,99.58,32.44c0,0-71.13,69.3-148.89,35.76l49.3-68.19Z"/><path fill="#ffc200" d="M1975.47,767.93s42.61,21.43,73.9,63.87c0,0-90.05,50.71-170.83,12.72,0,0,55.29-29.73,96.92-76.58Z"/><path fill="#15296f" d="M2017.11,412.95c-1.84,0-3.68-.41-5.38-1.22-70.99-33.88-99.7-83.62-111.29-119.38-12.63-38.99-8.2-69.95-8-71.25.6-4,3.1-7.47,6.71-9.3,3.61-1.83,7.88-1.8,11.47.09,36.56,19.24,65.57,41.06,86.23,64.84,17,19.57,28.45,40.52,34.05,62.29,9.76,37.95-1.83,65.27-2.33,66.41-1.35,3.11-3.91,5.53-7.09,6.72-1.41.53-2.9.79-4.38.79ZM1916.73,243.96c.55,10.9,2.47,25.58,7.86,41.79,13.46,40.52,41.78,72.91,84.29,96.42,1.34-9.25,1.72-22.71-2.61-38.5-9.98-36.42-40.79-70.64-89.54-99.71Z"/><path fill="#15296f" d="M2036.02,460.43c-1.58,0-3.16-.3-4.66-.9-3.17-1.28-5.69-3.8-6.95-6.97l-18.91-47.48c-.82-2.06-1.08-4.29-.75-6.48.43-2.84,11.17-70.11,73.47-116.58,2.93-2.18,6.66-2.98,10.22-2.18,3.56.8,6.59,3.12,8.3,6.34,1.16,2.19,28.24,54.23,10.81,105.46-10,29.4-32.32,52.16-66.34,67.66-1.64.75-3.41,1.12-5.18,1.12ZM2030.08,399.24l12.47,31.32c20.85-11.96,34.71-27.67,41.27-46.82,9.12-26.62,2.57-54.79-3.18-71.33-36.71,33.64-48.02,75.26-50.57,86.82Z"/><path fill="#15296f" d="M2054.14,535.04c-2.21,0-4.39-.58-6.33-1.72-2.92-1.71-5.02-4.54-5.82-7.83l-18.12-74.61c-1.02-4.22.21-8.66,3.27-11.75,2.13-2.15,53.15-52.56,135.33-40.91,3.34.47,6.34,2.27,8.33,4.99,1.99,2.72,2.8,6.13,2.24,9.45-.16.98-4.21,24.29-20.42,50.84-14.98,24.54-43.65,56.8-95.14,71.08-1.1.3-2.22.45-3.34.45ZM2049.95,452.33l13.16,54.19c28.79-10.64,51.51-29.17,67.66-55.22,6.95-11.22,11.34-21.82,14-29.67-23.94-1.11-47.03,3.68-68.82,14.31-12.01,5.86-20.87,12.25-26,16.39Z"/><path fill="#15296f" d="M2052.81,631.6c-3.23,0-6.37-1.25-8.72-3.54-2.85-2.77-4.21-6.73-3.66-10.67.09-.62,8.49-62.27,1.54-92.01-1.17-5.02.86-10.25,5.12-13.17,2.44-1.66,60.28-40.49,114.43-17.67,4.64,1.95,7.65,6.5,7.65,11.53,0,1.1-.19,27.21-14.32,55.61-13.15,26.42-41.17,59.97-99.99,69.74-.68.11-1.37.17-2.05.17ZM2067.97,528.79c3.26,23.34,1.16,54.85-.75,74.3,29.91-8.53,51.67-25.87,64.81-51.69,7.29-14.32,10.2-28.14,11.36-36.69-30.16-8.02-61.87,6.57-75.42,14.08Z"/><path fill="#15296f" d="M2050.64,716.81c-10.2,0-20.27-1.76-30.11-5.31-3.28-1.18-5.92-3.68-7.27-6.9s-1.31-6.85.13-10.02c6.67-14.71,24.51-57.22,27.02-77.04.48-3.77,2.65-7.12,5.89-9.1,1.95-1.19,48.47-28.58,115.89,17.42,5.67,3.87,7.16,11.59,3.34,17.29-.65.97-16.28,24.08-41.24,44.13-24.4,19.59-49.4,29.54-73.64,29.54ZM2042.11,691.2c41.89,5.65,79.12-32.67,94.79-51.72-36.63-20.91-62.63-15.5-72.9-11.77-4.09,19.58-15,47.12-21.89,63.48Z"/><path fill="#15296f" d="M2019.7,789.55c-16.98,0-33.49-3.37-49.18-10.14-3.48-1.5-6.09-4.5-7.1-8.16-1.01-3.66-.3-7.57,1.92-10.64l49.3-68.19c1.82-2.51,4.5-4.26,7.54-4.9,2.17-.46,53.85-10.75,110.06,34.97,2.77,2.25,4.44,5.58,4.6,9.14.16,3.56-1.21,7.02-3.76,9.51-.79.77-19.59,18.92-48.62,32.79-21.81,10.41-43.64,15.64-64.76,15.64ZM1995.47,761.6c24.36,6.21,50.38,2.89,77.56-9.94,12.91-6.1,23.63-13.27,31.09-18.89-33.11-22.01-61.74-22.24-72.37-21.36l-36.29,50.19Z"/><path fill="#15296f" d="M1944.87,871.08c-25.85,0-50.08-5.11-71.65-15.26-4.27-2.01-7.05-6.26-7.17-10.98-.13-4.72,2.42-9.11,6.58-11.35.53-.29,53.92-29.33,93.5-73.88,3.76-4.23,9.9-5.41,14.96-2.86,1.85.93,45.65,23.29,78.35,67.61,2.13,2.88,2.91,6.54,2.16,10.04-.75,3.5-2.97,6.51-6.09,8.27-.98.55-24.41,13.62-58.3,21.86-17.94,4.36-35.48,6.53-52.33,6.53ZM1907.42,841.61c49.35,12.51,99.12-4.32,122.34-14.29-19.16-21.99-40.51-36.65-51.83-43.59-24.42,25.67-51.73,45.6-70.5,57.88Z"/><path fill="#15296f" d="M1991.17,469.53c-22.63,0-41.02-6.53-54.33-13.65-23.74-12.69-36.65-29.86-37.19-30.59-2.07-2.79-2.89-6.32-2.25-9.74.64-3.42,2.67-6.42,5.61-8.27,66.97-42.38,117.39-19.12,119.5-18.11,2.84,1.36,5.06,3.73,6.22,6.65l18.91,47.48c1.23,3.08,1.18,6.52-.13,9.57-1.31,3.05-3.78,5.45-6.86,6.67-18.14,7.21-34.7,9.99-49.46,9.99ZM1929.7,420.8c14.78,13.08,45.55,32.28,89.85,19.57l-12.01-30.17c-10.51-3.28-39.41-8.97-77.84,10.6ZM2011.81,411.77h0,0Z"/><path fill="#15296f" d="M2037.87,546.49c-44.67,0-69.83-16.23-83.32-30.53-16.24-17.21-19.56-35.13-19.89-37.12-.88-5.39,1.83-10.73,6.71-13.18,38.17-19.23,90.04-29.56,92.23-29.99,5.95-1.17,11.88,2.1,14.07,7.75,19.24,49.69,14.34,90.1,14.13,91.79-.76,5.94-5.64,10.51-11.62,10.88-4.26.27-8.36.39-12.31.39ZM1962.29,483.45c6.2,13.55,24.41,37.94,75.19,38.04.04-12.18-1.36-33.83-9.54-58.98-14.63,3.44-42.03,10.61-65.65,20.94ZM2038.43,460.19h0Z"/><path fill="#15296f" d="M2043.94,642.52c-1.27,0-2.55-.19-3.82-.6-31.62-10.15-55.72-34.17-69.68-69.47-10.23-25.85-11.43-48.74-11.48-49.7-.32-6.63,4.6-12.35,11.2-13.04,31.52-3.26,80.74,11.31,82.82,11.93,4.04,1.21,7.2,4.38,8.4,8.42,16.03,54.04-5.1,102.95-6.01,105.01-2.05,4.63-6.6,7.45-11.43,7.45ZM1985.59,534.34c1.39,7.82,3.89,18.44,8.36,29.57,9.47,23.58,23.72,40.22,42.46,49.6,4.18-14.56,9.38-41.23,2.75-69.75-11.16-2.96-34.29-8.51-53.57-9.41Z"/><path fill="#15296f" d="M2018.78,722.97c-1.21,0-2.43-.18-3.65-.55-32.82-10-54.67-33.16-63.2-66.96-6.2-24.58-3-46.23-2.86-47.13.85-5.53,5.27-9.83,10.83-10.51,61.02-7.51,91.4,21.8,92.66,23.05,3.31,3.28,4.52,8.13,3.14,12.58l-25,80.72c-1.66,5.36-6.6,8.81-11.94,8.81ZM1973.07,621.74c-.41,17.73,3.14,55.08,37.73,72.19l18.44-59.56c-8.65-5.51-27.06-14.11-56.18-12.63ZM2035.06,638.71h.01-.01Z"/><path fill="#15296f" d="M1975.47,780.43c-2.65,0-5.25-.84-7.42-2.44-56.88-41.94-56.64-102.67-56.6-105.24.09-6.29,4.85-11.53,11.11-12.24,53.8-6.03,96.33,36.93,98.11,38.77,3.97,4.08,4.68,10.32,1.74,15.19l-36.24,59.93c-1.82,3.01-4.82,5.11-8.26,5.79-.81.16-1.62.24-2.43.24ZM1937.61,685.1c2.48,14.98,10.26,41.34,34.66,63.98l23.37-38.65c-10.76-8.74-32.61-23.64-58.02-25.33Z"/><path fill="#15296f" d="M1878.54,857.01c-2.2,0-4.39-.58-6.34-1.73-3.67-2.16-5.98-6.03-6.15-10.28-2.6-65.83,12.99-103.18,13.65-104.74,1.49-3.49,4.48-6.11,8.13-7.13,53.52-14.97,94.62,24.15,96.34,25.83,4.4,4.27,5.05,11.1,1.54,16.12-31.25,44.78-98.69,79.15-101.54,80.59-1.77.9-3.71,1.34-5.63,1.34ZM1900.71,755.81c-3.18,10.1-9.11,33.28-9.86,67.47,18.67-11.18,47.84-30.64,67.13-53.19-11.36-7.73-32.61-18.67-57.27-14.27Z"/><path fill="#15296f" d="M1647.72,492.15c-45.99,0-83.4-37.41-83.4-83.4s37.41-83.4,83.4-83.4,83.4,37.41,83.4,83.4-37.41,83.4-83.4,83.4ZM1647.72,373.35c-19.52,0-35.4,15.88-35.4,35.4s15.88,35.4,35.4,35.4,35.4-15.88,35.4-35.4-15.88-35.4-35.4-35.4Z"/><path fill="#15296f" d="M1771.21,829.68c-10.21,0-19.67-6.56-22.89-16.81l-106.81-339.91c-3.97-12.65,3.06-26.12,15.7-30.09,12.65-3.97,26.12,3.06,30.09,15.7l106.81,339.91c3.97,12.65-3.06,26.12-15.7,30.09-2.39.75-4.82,1.11-7.2,1.11Z"/><path fill="#15296f" d="M1588.31,546.54c-10.57,0-20.25-7.03-23.15-17.72-3.47-12.79,4.08-25.98,16.88-29.45l172.4-46.79c12.79-3.47,25.98,4.08,29.45,16.88,3.47,12.79-4.08,25.98-16.88,29.45l-172.4,46.79c-2.1.57-4.22.84-6.3.84Z"/><path fill="#15296f" d="M1695.3,782.72c-58.75,0-100.39-27.63-127.12-54.79-37.44-38.04-53.01-82.53-53.66-84.41-4.31-12.53,2.36-26.19,14.9-30.5,12.51-4.3,26.14,2.34,30.48,14.83.19.53,13.34,37.32,43.54,67.46,38.22,38.14,86.32,48.59,142.98,31.06,40.29-12.46,67.22-33.06,80.05-61.23,22.37-49.12-3.1-107.91-3.36-108.5-5.43-12.09-.02-26.26,12.07-31.69,12.09-5.43,26.31,0,31.74,12.09,1.43,3.18,34.59,78.57,3.42,147.61-18.69,41.38-55.61,70.85-109.73,87.59-23.76,7.35-45.51,10.49-65.3,10.49Z"/><path fill="#15296f" d="M572.33,1698.25c-45.71,0-82.89-37.18-82.89-82.89,0-35.38,22.44-66.85,55.85-78.36h.01c.15-.06.3-.12.45-.17,8.55-2.89,17.49-4.36,26.58-4.36,45.71,0,82.89,37.18,82.89,82.89,0,32.19-18.88,61.73-48.09,75.25-.25.11-.5.22-.76.32l-8.49,3.27c-.31.12-.62.23-.93.33-3.24,1.01-6.61,1.83-10.02,2.44-4.78.85-9.69,1.29-14.61,1.29ZM601.88,1679.26h0,0ZM553.98,1560.44c-.13.05-.26.1-.39.14-23.42,8-39.15,30.01-39.15,54.78,0,31.92,25.97,57.89,57.89,57.89,3.45,0,6.89-.3,10.21-.9,2.24-.4,4.46-.93,6.58-1.58l7.86-3.03c20.2-9.51,33.23-30.04,33.23-52.39,0-31.92-25.97-57.89-57.89-57.89-6.28,0-12.45,1-18.35,2.97Z"/><path fill="#15296f" d="M601.88,1691.76c-4.88,0-9.5-2.88-11.51-7.63-2.63-6.21.14-13.38,6.26-16.22,20.4-9.44,33.59-30.07,33.59-52.56,0-31.92-25.97-57.89-57.89-57.89-6.34,0-12.57,1.02-18.52,3.03-.01,0-.03,0-.04.01-6.54,2.22-13.63-1.29-15.85-7.83-2.21-6.54,1.29-13.63,7.83-15.85h0c7.41-2.51,15.19-6.18,23.43-10.07,20.79-9.81,44.35-20.94,69.65-15.8,30.65,6.22,57.46,32.51,65.19,63.95,5.07,20.61,1.88,43.55-8.75,62.94-6.73,12.27-15.52,21.22-27.67,28.17,0,0,0,0,0,0-8.75,5.01-18.55,8.5-27.05,11.39-6.87,2.33-13.53,5.09-20.57,8.02-4.41,1.83-8.97,3.72-13.6,5.5-1.47.57-2.99.84-4.49.84ZM661.38,1655.17h0,0ZM604.22,1538.85c29.92,12.52,51,42.1,51,76.51,0,11.27-2.31,22.21-6.57,32.26,2.31-1.04,4.47-2.12,6.53-3.3,8.09-4.63,13.69-10.33,18.17-18.49,7.66-13.96,9.99-30.34,6.4-44.94-5.42-22.02-24.72-41.12-45.88-45.42-9.63-1.95-19.49-.15-29.64,3.39Z"/><path fill="#ffc200" d="M2414.82,1155.53c-3.79,7.26-10.28,12.72-18.04,15.21-.41.14-.83.26-1.25.38-7.12,1.97-17.26,4.77-30.14,8.31-219.07,60.29-1230.23,336.58-1657.34,418.55-4.88.94-9.68,1.85-14.4,2.73,0,0,.93-5.73.5-13.81-.15-2.85-.47-6.01-1.06-9.3-.93-5.18-2.52-10.71-5.18-16-3.09-6.17-7.62-12.02-14.2-16.63,0,0,999.49-347.76,1679.72-512.73,7.58-1.83,15.58-.8,22.38,2.99,24.12,13.43,74.89,51.49,39.01,120.3Z"/><path fill="#fff" d="M2414.82,1155.53c-3.79,7.26-10.28,12.72-18.04,15.21.28-2.33,1.22-5.4,2.91-9.29,11.52-26.48,8.01-45.74-.53-59.36-12.72-20.29-37.75-29.18-60.73-22.47l-1650.51,481.98c-3.09-6.17-7.62-12.02-14.2-16.63,0,0,999.49-347.76,1679.72-512.73,7.58-1.83,15.58-.8,22.38,2.99,24.12,13.43,74.89,51.49,39.01,120.3Z" opacity=".5"/><path fill="#15296f" d="M693.65,1613.21c-3.23,0-6.37-1.25-8.73-3.55-2.91-2.84-4.26-6.92-3.61-10.94.04-.25,4.36-30.11-14.77-43.52-3.84-2.69-5.85-7.31-5.21-11.96s3.84-8.54,8.27-10.08c2.5-.87,253.85-88.22,585.06-194.6,305.76-98.2,744.07-233.17,1095.82-318.47,10.71-2.6,21.86-1.1,31.41,4.22,14.51,8.08,34.41,22.3,46.79,44.14,10.85,19.13,19.17,50.77-2.79,92.86-5.57,10.68-15.43,18.65-27.05,21.86-127.62,35.25-1259.67,346.79-1702.91,429.83-.77.14-1.54.21-2.3.21ZM695.99,1550.49c7.49,11.72,9.98,24.87,10.59,35.04,452.4-86.95,1559.54-391.64,1685.62-426.46,4.96-1.37,9.16-4.77,11.54-9.32,29.77-57.08-8.53-89.41-34-103.59-4.03-2.25-8.78-2.87-13.35-1.76-351,85.12-788.66,219.89-1094.01,317.96-280.06,89.95-502.95,166.27-566.39,188.14Z"/><path fill="#15296f" d="M864.51,1577.77c-3.33,0-6.64-1.32-9.1-3.93l-60.95-64.73c-4.73-5.03-4.49-12.94.53-17.67s12.94-4.5,17.67.53l60.95,64.73c4.73,5.03,4.49,12.94-.53,17.67-2.41,2.27-5.49,3.4-8.57,3.4Z"/><path fill="#15296f" d="M983.27,1550.7c-3.33,0-6.64-1.32-9.1-3.93l-70.17-74.52c-4.73-5.03-4.49-12.94.53-17.67s12.94-4.5,17.67.53l70.17,74.52c4.73,5.03,4.49,12.94-.53,17.67-2.41,2.27-5.49,3.4-8.57,3.4Z"/><path fill="#15296f" d="M1101.12,1522.67c-3.33,0-6.64-1.32-9.1-3.93l-78.14-82.99c-4.73-5.03-4.49-12.94.53-17.67s12.94-4.5,17.67.53l78.14,82.99c4.73,5.03,4.49,12.94-.53,17.67-2.41,2.27-5.49,3.4-8.57,3.4Z"/><path fill="#15296f" d="M1218.36,1493.99c-3.33,0-6.64-1.32-9.1-3.93l-85.18-90.47c-4.73-5.03-4.49-12.94.53-17.67,5.03-4.73,12.94-4.5,17.67.53l85.18,90.47c4.73,5.03,4.49,12.94-.53,17.67-2.41,2.27-5.49,3.4-8.57,3.4Z"/><path fill="#15296f" d="M1335.13,1464.8c-3.33,0-6.64-1.32-9.1-3.93l-91.41-97.08c-4.73-5.03-4.49-12.94.53-17.67,5.02-4.73,12.94-4.5,17.67.53l91.41,97.08c4.73,5.03,4.49,12.94-.53,17.67-2.41,2.27-5.49,3.4-8.57,3.4Z"/><path fill="#15296f" d="M1451.53,1435.22c-3.33,0-6.64-1.32-9.1-3.93l-96.92-102.93c-4.73-5.03-4.49-12.94.53-17.67,5.03-4.73,12.94-4.5,17.67.53l96.92,102.93c4.73,5.03,4.5,12.94-.53,17.67-2.41,2.27-5.49,3.4-8.57,3.4Z"/><path fill="#15296f" d="M1567.61,1405.32c-3.33,0-6.64-1.32-9.1-3.93l-101.74-108.07c-4.73-5.03-4.49-12.94.53-17.67,5.03-4.73,12.94-4.49,17.67.53l101.74,108.07c4.73,5.03,4.49,12.94-.53,17.67-2.41,2.27-5.49,3.4-8.57,3.4Z"/><path fill="#15296f" d="M1683.44,1375.13c-3.33,0-6.64-1.32-9.1-3.93l-105.9-112.47c-4.73-5.03-4.49-12.94.53-17.67,5.03-4.73,12.94-4.5,17.67.53l105.9,112.47c4.73,5.03,4.49,12.94-.53,17.67-2.41,2.27-5.49,3.4-8.57,3.4Z"/><path fill="#15296f" d="M1799.03,1344.7c-3.33,0-6.64-1.32-9.1-3.93l-109.37-116.16c-4.73-5.03-4.49-12.94.53-17.67,5.02-4.73,12.93-4.5,17.67.53l109.37,116.16c4.73,5.03,4.49,12.94-.53,17.67-2.41,2.27-5.49,3.4-8.57,3.4Z"/><path fill="#15296f" d="M1914.42,1314.05c-3.33,0-6.64-1.32-9.1-3.93l-112.13-119.09c-4.73-5.03-4.49-12.94.53-17.67s12.94-4.5,17.67.53l112.13,119.09c4.73,5.03,4.49,12.94-.53,17.67-2.41,2.27-5.49,3.4-8.57,3.4Z"/><path fill="#15296f" d="M2029.63,1283.2c-3.33,0-6.64-1.32-9.1-3.93l-114.13-121.2c-4.73-5.03-4.5-12.94.53-17.67,5.03-4.73,12.94-4.5,17.67.53l114.13,121.2c4.73,5.03,4.5,12.94-.53,17.67-2.41,2.27-5.49,3.4-8.57,3.4Z"/><path fill="#15296f" d="M2144.65,1252.16c-3.33,0-6.64-1.32-9.1-3.93l-115.26-122.4c-4.73-5.03-4.5-12.94.53-17.67,5.03-4.73,12.94-4.5,17.67.53l115.26,122.4c4.73,5.03,4.5,12.94-.53,17.67-2.41,2.27-5.49,3.4-8.57,3.4Z"/><path fill="#15296f" d="M2259.5,1220.94c-3.33,0-6.64-1.32-9.1-3.93l-115.4-122.56c-4.73-5.03-4.49-12.94.53-17.67,5.03-4.73,12.94-4.5,17.67.53l115.4,122.56c4.73,5.03,4.49,12.94-.53,17.67-2.41,2.27-5.49,3.4-8.57,3.4Z"/><path fill="#15296f" d="M2374.15,1189.51c-3.33,0-6.64-1.32-9.1-3.93l-114.34-121.44c-4.73-5.03-4.49-12.94.53-17.67,5.02-4.73,12.93-4.5,17.67.53l114.34,121.44c4.73,5.03,4.49,12.94-.53,17.67-2.41,2.27-5.49,3.4-8.57,3.4Z"/><path fill="#15296f" d="M834.95,1622.65c13.11,20.03,30.28,37.37,48.13,53.26,165.68,142.75,428.85,168.34,639.79,160.59,79.01-2.9,158.61-10.71,236.89-21.78,85.73-12.18,171.39-28.5,256.45-44.78,28-5.35,57.51-11.08,85.51-16.46,14.26-2.8,28.56-5.45,42.93-7.93-54.37,19.86-110.85,36.91-166.92,51.39-81.02,21.06-163.67,36.64-246.54,48.74-53.99,7.67-108.93,13.93-163.32,17.56-124.12,8.6-250.05,5.67-372.5-17.69-134.71-26.12-291.85-86.24-375.65-200.36-1.11-1.59-2.19-3.22-3.27-4.87,0,0-1.61-2.55-1.61-2.55-.56-.92-1.01-1.65-1.71-2.91-3.37-6.02-1.23-13.63,4.79-17.01,6.05-3.4,13.66-1.17,17.02,4.79h0Z"/><path fill="#15296f" d="M500.34,1578.24c-74.39-1.72-151.72-25.11-215.01-64.2-55.59-35.01-105.76-84.73-127.1-148.06-3.05-8.87-5.4-17.97-7.01-27.21,11.01,15.21,21.29,30.11,32.38,44.22,10.88,13.98,22.42,27.62,34.56,40.47,54.32,58.56,128.31,95.26,204.89,115.22,24.63,6.42,49.72,11.39,75.02,14.24,0,0,3.04.32,3.04.32,16.11,1.49,15.5,24.45-.77,24.99h0Z"/><path fill="#15296f" d="M748.82,955.75c50.89,36.63,100.96,72.77,154.03,105.78,17.39,10.65,35.61,21.04,53.68,30.43,41.67,21.73,85.03,39.83,130.01,53.25,68.53,18.63,138,37.8,202.01,69.27,0,0,9.59,4.97,9.59,4.97,0,0,2.4,1.24,2.4,1.24,3.62,2,8.28,4.71,11.85,6.72,7.81,4.79,15.96,10.15,23.09,16.03,2.19,1.86,4.84,4.25,6.85,6.36,0,0,1.27,1.42,1.27,1.42,0,0,.63.72.63.72.31.38.68.86,1.01,1.29,4.06,5.58,2.82,13.4-2.76,17.46-5.78,4.41-14.04,2.1-17.28-2.48-5.15-4.86-11.5-8.81-17.58-12.6,0,0-4.3-2.43-4.3-2.43,0,0-4.28-2.45-4.28-2.45-3.36-1.73-7.79-4.06-11.1-5.76-65.85-31.59-137.27-50.28-207.5-70.01-2.93-.77-7.31-2.28-10.22-3.17-62.68-19.83-121.9-49.71-176.89-85.46-25.02-16.37-49.6-34.08-72.23-53.63-26.53-23.16-51.88-48.13-72.28-76.96h0Z"/><path fill="#15296f" d="M1550.48,1918.35c-727.23,37.6-791.22-276.25-791.22-276.25l77.17-19.06c51,79.48,279.4,335.94,1042.11,184.76,892.26-176.87,752.02-434.56,750.94-436.53h.01c9.23,15.35,16.48,32.44,21.03,51.45,37.8,157.97-372.8,458.03-1100.04,495.63Z" opacity=".25"/><path fill="#15296f" d="M2365.39,1179.43c-219.07,60.29-1230.23,336.58-1657.34,418.55-6.57-2.82-11.32-6.47-13.9-11.08-1.51-2.67-2.28-5.66-2.27-9,0,0,.41-.1,1.21-.3,35.81-8.76,856.42-209.61,1106.13-276.35,255.3-68.23,591.94-167.6,600.47-139.8.88,2.87-11.46,9.1-34.3,17.98Z" opacity=".25"/><path fill="#15296f" d="M2604.93,1338.79c-90.3-58.47-221.71-42.31-221.71-42.31l-1541.95,355.8-20.28-25.43,15.44-3.81,1552.19-383.38s138.76,15.53,216.31,99.13Z" opacity=".25"/></svg>